# xmcd
#
# Track frame offsets:
#  225
#  10535
#  27491
#  44706
#  67257
#  78435
#  88977
#  99064
#  114935
#  126462
#  152081
#  169058
#
# Disc length: 2551 seconds
#
# Revision: 1
# Processed by: cddbd v1.5.2PL0 Copyright (c) Steve Scherf et al.
# Submitted via: Collectorz.com_Music_Collector 6.11
#
DISCID=9a09f40c
DTITLE=Eric Clapton - Early In The Morning
DYEAR=2005
DGENRE=Blues
TTITLE0=A Certain Girl
TTITLE1=Big Boss Man
TTITLE2=Early In The Morning
TTITLE3=Five Long Years
TTITLE4=For Your Love
TTITLE5=Got To Hurry
TTITLE6=I Wish I Would
TTITLE7=Louise
TTITLE8=Pounds And Stomps
TTITLE9=She's So Respectable
TTITLE10=Stormy Monday Blues
TTITLE11=The First Time I Met The Blues
EXTD=
EXTT0=
EXTT1=
EXTT2=
EXTT3=
EXTT4=
EXTT5=
EXTT6=
EXTT7=
EXTT8=
EXTT9=
EXTT10=
EXTT11=
PLAYORDER=
